<?xml version="1.0" encoding="UTF-8" standalone="no"?>
<svg
   width="256"
   height="256"
   version="1.1"
   id="svg13"
   sodipodi:docname="deltarune.svg"
   inkscape:version="1.4.4 (dcaf3e7d9e, 2026-05-05)"
   xmlns:inkscape="http://www.inkscape.org/namespaces/inkscape"
   xmlns:sodipodi="http://sodipodi.sourceforge.net/DTD/sodipodi-0.dtd"
   xmlns:xlink="http://www.w3.org/1999/xlink"
   xmlns="http://www.w3.org/2000/svg"
   xmlns:svg="http://www.w3.org/2000/svg">
  <sodipodi:namedview
     id="namedview13"
     pagecolor="#505050"
     bordercolor="#eeeeee"
     borderopacity="1"
     inkscape:showpageshadow="0"
     inkscape:pageopacity="0"
     inkscape:pagecheckerboard="0"
     inkscape:deskcolor="#505050"
     inkscape:zoom="0.78125"
     inkscape:cx="-206.72"
     inkscape:cy="161.92"
     inkscape:window-width="1916"
     inkscape:window-height="1027"
     inkscape:window-x="0"
     inkscape:window-y="0"
     inkscape:window-maximized="0"
     inkscape:current-layer="g16" />
  <defs
     id="defs7">
    <linearGradient
       id="linearGradient13"
       inkscape:collect="always">
      <stop
         style="stop-color:#ebdbb2;stop-opacity:1;"
         offset="0"
         id="stop13" />
      <stop
         style="stop-color:#3c3836;stop-opacity:1;"
         offset="1"
         id="stop14" />
    </linearGradient>
    <linearGradient
       id="linearGradient31"
       x1="0.50020003"
       x2="0.50020003"
       y2="1"
       gradientTransform="matrix(244,0,0,228,5.986,12)"
       gradientUnits="userSpaceOnUse"
       y1="-7.4505806e-09">
      <stop
         stop-color="#ebdbb2"
         stop-opacity=".2"
         offset="0"
         id="stop1" />
      <stop
         stop-color="#ebdbb2"
         stop-opacity=".05"
         offset=".1"
         id="stop2" />
      <stop
         stop-opacity="0"
         offset=".7036"
         id="stop3" />
      <stop
         stop-opacity=".1"
         offset=".8975"
         id="stop4" />
      <stop
         stop-opacity=".2"
         offset="1"
         id="stop5" />
    </linearGradient>
    <linearGradient
       id="linearGradient16"
       x1="4.1898065"
       x2="250"
       y1="12"
       y2="240"
       gradientUnits="userSpaceOnUse">
      <stop
         stop-color="#b16286"
         offset="0"
         id="stop6"
         style="stop-color:#504945;stop-opacity:1;" />
      <stop
         stop-color="#d3869b"
         offset="1"
         id="stop7"
         style="stop-color:#3c3836;stop-opacity:1;" />
    </linearGradient>
    <linearGradient
       inkscape:collect="always"
       xlink:href="#linearGradient13"
       id="linearGradient14"
       x1="136.2115"
       y1="19.940002"
       x2="136.2115"
       y2="247.52301"
       gradientUnits="userSpaceOnUse" />
  </defs>
  <path
     d="m165 12c72 0 85 15 85 87v56c0 70-13 85-85 85h-74c-72 0-85-15-85-85v-56c0-72 13-87 85-87z"
     fill="url(#linearGradient16)"
     style="isolation:isolate;fill:url(#linearGradient16)"
     id="path7" />
  <path
     d="m233.46 27.461-211.04 197.2c12.384 11.776 33.468 15.341 68.583 15.341h74c72 0 85-15 85-85v-56c0-37-3.43-58.945-16.539-71.539z"
     fill="#458588"
     style="isolation:isolate;fill:url(#linearGradient14);fill-opacity:1"
     id="path8" />
  <path
     d="m233.46 27.461-211.04 197.2c1.2088 1.1494 2.5135 2.2301 3.893 3.2273l210.49-196.68c-1.0426-1.3145-2.1374-2.5929-3.3375-3.7462z"
     fill="#ebdbb2"
     opacity=".2"
     style="isolation:isolate"
     id="path9" />
  <path
     d="m91 12c-72 0-85 15-85 87v56c0 70 13 85 85 85h74c72 0 85-15 85-85v-56c0-72-13-87-85-87zm0 4h74c68 0 80 15 80 83v56c0 66-12 81-80 81h-74c-68 0-80-15-80-81v-56c0-68 12-83 80-83z"
     fill="url(#linearGradient31)"
     style="isolation:isolate"
     id="path13" />
  <g
     inkscape:groupmode="layer"
     id="layer4"
     inkscape:label="ff"
     transform="matrix(0.85968878,0,0,0.85968878,5.2874859,29.298566)">
    <path
       d="m 147.37973,52.786416 c -20.65911,-19.123911 -54.155473,-19.123911 -74.814582,0 -20.659108,19.123928 -20.659108,50.119524 0,69.243434 l 74.814582,69.24343 74.81458,-69.24343 c 20.65911,-19.12391 20.65911,-50.119506 0,-69.243434 -20.65911,-19.123911 -54.15547,-19.11696 -74.81458,0 z"
       fill="#b83b5e"
       id="XMLID_1338_"
       style="fill:#d3869b;fill-opacity:1;stroke-width:6.94658" />
    <path
       d="m 222.19431,52.786416 c -20.65911,-19.123911 -54.15547,-19.123911 -74.81458,0 -20.65911,-19.123911 -54.155473,-19.123911 -74.814582,0 -6.32138,5.85597 -10.690781,12.823387 -13.142928,20.221471 20.867508,-18.463988 60.58801,-18.283379 81.01093,0.618246 20.65911,-19.123911 47.20891,-19.123911 67.86802,0 14.37246,13.302702 18.71407,32.343227 13.09429,49.140057 l 0.79885,-0.73634 c 20.65217,-19.11697 20.65217,-50.119506 0,-69.243434 z"
       fill="#c6627e"
       id="XMLID_1342_"
       style="fill:#cc708b;fill-opacity:1;stroke-width:6.94658" />
  </g>
  <g
     inkscape:groupmode="layer"
     id="g16"
     inkscape:label="ff"
     style="fill:#282828;fill-opacity:0.188235"
     transform="matrix(0.85968878,0,0,0.85968878,5.6765366,38.246733)">
    <path
       d="m 146.92718,47.808384 c -20.65911,-19.123911 -54.155471,-19.123911 -74.81458,0 -20.659108,19.123928 -20.659108,50.119528 0,69.243436 l 74.81458,69.24343 74.81458,-69.24343 c 20.65911,-19.123908 20.65911,-50.119508 0,-69.243436 -20.65911,-19.123911 -54.15547,-19.11696 -74.81458,0 z"
       fill="#b83b5e"
       id="path14"
       style="fill:#282828;fill-opacity:0.188235;stroke-width:6.94658" />
  </g>
  <g
     inkscape:groupmode="layer"
     id="layer5"
     inkscape:label="ff 1" />
</svg>
